<svg width="48" height="43" viewBox="0 0 48 43" fill="none" xmlns="http://www.w3.org/2000/svg">
<path d="M47.6092 16.1618L45.7233 14.2759C45.2025 13.7551 44.3583 13.7551 43.8375 14.2759L42.895 15.2184L40.4866 12.8101C40.9558 11.0342 40.5166 9.06838 39.1241 7.67588L35.3533 3.90502C30.1466 -1.30167 21.704 -1.30167 16.4965 3.90502L24.039 7.67588V9.23839C24.039 10.6526 24.6007 12.0092 25.6015 13.0092L29.6966 17.1043C31.0891 18.4968 33.0549 18.9359 34.8308 18.4668L37.2391 20.8751L36.2966 21.8176C35.7758 22.3385 35.7758 23.1826 36.2966 23.7035L38.1824 25.5893C38.7033 26.1101 39.5475 26.1101 40.0683 25.5893L47.6108 18.0468C48.13 17.5268 48.13 16.6826 47.6092 16.1618ZM23.7157 14.8951C23.4074 14.5867 23.1457 14.2459 22.8949 13.8992L1.6364 33.7469C-0.494446 35.7369 -0.551946 39.0961 1.5089 41.1577C3.56974 43.2194 6.92976 43.1619 8.91978 41.0302L28.7641 19.7743C28.4341 19.5318 28.1057 19.2851 27.8107 18.9901L23.7157 14.8951Z" fill="#646464"/>
</svg>
