<svg width="48" height="43" viewBox="0 0 48 43" fill="none" xmlns="http://www.w3.org/2000/svg">
<path d="M45.5164 0.810381C45.0497 -0.231385 43.7163 -0.273055 43.1579 0.710371C40.5743 5.20246 35.9489 8.00273 30.665 8.00273H23.9977C15.1635 8.00273 7.9962 15.1701 7.9962 24.0042C7.9962 24.5876 8.06287 25.146 8.12121 25.7127C13.4384 21.904 21.1141 18.6704 31.9985 18.6704C32.7319 18.6704 33.3319 19.2705 33.3319 20.0039C33.3319 20.7373 32.7319 21.3373 31.9985 21.3373C11.0465 21.3373 2.16231 34.1802 0.195459 39.0057C-0.354593 40.3641 0.295469 41.9143 1.65393 42.4727C3.02073 43.0394 4.57087 42.381 5.1376 41.0309C5.26261 40.7308 6.87943 37.0388 11.1298 33.4801C13.8301 37.1388 18.9639 40.6308 25.7062 39.9141C38.7908 38.964 48 27.2296 48 12.8615C48 8.67779 47.0999 4.34405 45.5164 0.810381Z" fill="#52B886"/>
</svg>
