<svg width="48" height="48" viewBox="0 0 48 48" fill="none" xmlns="http://www.w3.org/2000/svg">
<path d="M15 27H9.75C9.33562 27 9 26.6644 9 26.25V24.75C9 24.3356 9.33562 24 9.75 24H15V18H9.75C9.33562 18 9 17.6644 9 17.25V15.75C9 15.3356 9.33562 15 9.75 15H15V9H9.75C9.33562 9 9 8.66438 9 8.25V6.75C9 6.33563 9.33562 6 9.75 6H15V3C15 1.34344 13.6566 0 12 0H3C1.34344 0 0 1.34344 0 3V45C0 45.2597 0.0853125 45.4912 0.147188 45.7312L15 30.8794V27ZM45 33H42V38.25C42 38.6644 41.6644 39 41.25 39H39.75C39.3356 39 39 38.6644 39 38.25V33H33V38.25C33 38.6644 32.6644 39 32.25 39H30.75C30.3356 39 30 38.6644 30 38.25V33H24V38.25C24 38.6644 23.6644 39 23.25 39H21.75C21.3356 39 21 38.6644 21 38.25V33H17.1216L2.26875 47.8528C2.50875 47.9147 2.74125 48 3 48H45C46.6566 48 48 46.6566 48 45V36C48 34.3434 46.6566 33 45 33Z" fill="#957522"/>
</svg>
