<svg width="36" height="35" viewBox="0 0 36 35" fill="none" xmlns="http://www.w3.org/2000/svg">
<path d="M24.1363 23.264L29.4298 14.1041C29.7102 14.6766 31.1125 17.3101 34.4779 23.264C37.8433 29.2179 34.8518 32.7303 32.9354 33.7423C31.6325 34.8237 28.1572 36.2023 24.6796 33.0657C21.2021 29.9292 22.8684 25.2243 24.1363 23.264Z" fill="#6ED2C8"/>
<path d="M1.53173 23.264L6.82523 14.1041C7.10568 14.6766 8.50793 17.3101 11.8733 23.264C15.2387 29.2179 12.2473 32.7303 10.3309 33.7423C9.02794 34.8237 5.55269 36.2023 2.0751 33.0657C-1.40248 29.9292 0.26386 25.2243 1.53173 23.264Z" fill="#52B886"/>
<path fill-rule="evenodd" clip-rule="evenodd" d="M26.5444 23.7512C26.8436 23.9945 26.887 24.4317 26.6413 24.7279C26.3312 25.1016 25.889 25.8066 25.6285 26.6455C25.3689 27.4819 25.3081 28.3883 25.66 29.2254C25.8088 29.5792 25.6395 29.9854 25.282 30.1327C24.9245 30.2799 24.5141 30.1124 24.3654 29.7586C23.8479 28.5278 23.9682 27.2685 24.2881 26.2379C24.6073 25.2099 25.1432 24.3466 25.5576 23.8471C25.8033 23.5509 26.2451 23.508 26.5444 23.7512Z" fill="white"/>
<path d="M26.3799 16.1685L17.5632 0L9.50026 16.1685L12.6729 21.6506C16.515 28.5066 14.5308 32.4412 13.0585 33.5515C17.0549 36.3688 20.9637 34.4362 22.4185 33.1178C19.1933 28.4684 21.7349 23.715 23.2073 21.6506C24.3852 19.999 25.8131 17.3077 26.3799 16.1685Z" fill="#227295"/>
<path fill-rule="evenodd" clip-rule="evenodd" d="M11.0579 18.8601C12.7629 16.0312 14.7098 10.5763 15.4949 8.11897C13.9818 9.55197 11.2604 14.5123 9.98678 17.0092L11.0579 18.8601Z" fill="white"/>
<path fill-rule="evenodd" clip-rule="evenodd" d="M25.4565 30.6914C25.754 30.4461 26.1961 30.4859 26.4439 30.7803C26.5857 30.9488 26.8906 31.2355 27.2945 31.472C27.6978 31.7082 28.1511 31.8661 28.6059 31.8539C28.9929 31.8435 29.3152 32.1457 29.3257 32.5288C29.3362 32.9119 29.0309 33.2309 28.6438 33.2412C27.8422 33.2627 27.1273 32.9866 26.5806 32.6666C26.0346 32.3469 25.6078 31.9553 25.3666 31.6687C25.1187 31.3743 25.159 30.9367 25.4565 30.6914Z" fill="white"/>
<path fill-rule="evenodd" clip-rule="evenodd" d="M2.16128 29.4971C2.52626 29.3691 2.92698 29.5582 3.05632 29.9194C3.13032 30.1261 3.31581 30.4997 3.61184 30.8601C3.90737 31.22 4.27726 31.5237 4.70805 31.6683C5.07474 31.7914 5.27118 32.1854 5.14679 32.5484C5.02241 32.9113 4.6243 33.1057 4.2576 32.9826C3.4982 32.7277 2.92434 32.2234 2.52371 31.7355C2.12357 31.2483 1.86048 30.7346 1.7346 30.383C1.60526 30.0218 1.79629 29.6251 2.16128 29.4971Z" fill="white"/>
<path fill-rule="evenodd" clip-rule="evenodd" d="M3.54854 24.2527C3.83904 24.5061 3.86698 24.9446 3.61095 25.2321C3.39137 25.4787 2.84049 26.3428 2.76799 27.4549C2.74306 27.8373 2.4096 28.1274 2.02318 28.1027C1.63676 28.078 1.34372 27.748 1.36865 27.3655C1.46443 25.8962 2.17089 24.7502 2.55896 24.3144C2.81499 24.0269 3.25804 23.9993 3.54854 24.2527Z" fill="white"/>
</svg>
