<svg width="158" height="35" viewBox="0 0 158 35" fill="none" xmlns="http://www.w3.org/2000/svg">
<path d="M24.1363 23.264L29.4298 14.1041C29.7102 14.6766 31.1125 17.3101 34.4779 23.264C37.8433 29.2179 34.8518 32.7303 32.9354 33.7423C31.6325 34.8237 28.1572 36.2023 24.6796 33.0657C21.2021 29.9292 22.8684 25.2243 24.1363 23.264Z" fill="#6ED2C8"/>
<path d="M1.53173 23.264L6.82523 14.1041C7.10568 14.6766 8.50793 17.3101 11.8733 23.264C15.2387 29.2179 12.2473 32.7303 10.3309 33.7423C9.02794 34.8237 5.55269 36.2023 2.0751 33.0657C-1.40248 29.9292 0.26386 25.2243 1.53173 23.264Z" fill="#52B886"/>
<path fill-rule="evenodd" clip-rule="evenodd" d="M26.5444 23.7512C26.8436 23.9945 26.887 24.4317 26.6413 24.7279C26.3312 25.1016 25.889 25.8066 25.6285 26.6455C25.3689 27.4819 25.3081 28.3883 25.66 29.2254C25.8088 29.5792 25.6395 29.9854 25.282 30.1327C24.9245 30.2799 24.5141 30.1124 24.3654 29.7586C23.8479 28.5278 23.9682 27.2685 24.2881 26.2379C24.6073 25.2099 25.1432 24.3466 25.5576 23.8471C25.8033 23.5509 26.2451 23.508 26.5444 23.7512Z" fill="white"/>
<path d="M26.3799 16.1685L17.5632 0L9.50026 16.1685L12.6729 21.6506C16.515 28.5066 14.5308 32.4412 13.0585 33.5515C17.0549 36.3688 20.9637 34.4362 22.4185 33.1178C19.1933 28.4684 21.7349 23.715 23.2073 21.6506C24.3852 19.999 25.8131 17.3077 26.3799 16.1685Z" fill="#227295"/>
<path fill-rule="evenodd" clip-rule="evenodd" d="M11.0579 18.8601C12.7629 16.0312 14.7098 10.5763 15.4949 8.11897C13.9818 9.55197 11.2604 14.5123 9.98678 17.0092L11.0579 18.8601Z" fill="white"/>
<path fill-rule="evenodd" clip-rule="evenodd" d="M25.4565 30.6914C25.754 30.4461 26.1961 30.4859 26.4439 30.7803C26.5857 30.9488 26.8906 31.2355 27.2945 31.472C27.6978 31.7082 28.1511 31.8661 28.6059 31.8539C28.9929 31.8435 29.3152 32.1457 29.3257 32.5288C29.3362 32.9119 29.0309 33.2309 28.6438 33.2412C27.8422 33.2627 27.1273 32.9866 26.5806 32.6666C26.0346 32.3469 25.6078 31.9553 25.3666 31.6687C25.1187 31.3743 25.159 30.9367 25.4565 30.6914Z" fill="white"/>
<path fill-rule="evenodd" clip-rule="evenodd" d="M2.16128 29.4971C2.52626 29.3691 2.92698 29.5582 3.05632 29.9194C3.13032 30.1261 3.31581 30.4997 3.61184 30.8601C3.90737 31.22 4.27726 31.5237 4.70805 31.6683C5.07474 31.7914 5.27118 32.1854 5.14679 32.5484C5.02241 32.9113 4.6243 33.1057 4.2576 32.9826C3.4982 32.7277 2.92434 32.2234 2.52371 31.7355C2.12357 31.2483 1.86048 30.7346 1.7346 30.383C1.60526 30.0218 1.79629 29.6251 2.16128 29.4971Z" fill="white"/>
<path fill-rule="evenodd" clip-rule="evenodd" d="M3.54854 24.2527C3.83904 24.5061 3.86698 24.9446 3.61095 25.2321C3.39137 25.4787 2.84049 26.3428 2.76799 27.4549C2.74306 27.8373 2.4096 28.1274 2.02318 28.1027C1.63676 28.078 1.34372 27.748 1.36865 27.3655C1.46443 25.8962 2.17089 24.7502 2.55896 24.3144C2.81499 24.0269 3.25804 23.9993 3.54854 24.2527Z" fill="white"/>
<path d="M45.517 26V8.54545H49.2074V15.7472H56.6989V8.54545H60.3807V26H56.6989V18.7898H49.2074V26H45.517ZM65.5966 30.9091C65.1364 30.9091 64.7045 30.8722 64.3011 30.7983C63.9034 30.7301 63.5739 30.642 63.3125 30.5341L64.1307 27.8239C64.5568 27.9545 64.9403 28.0256 65.2812 28.0369C65.6278 28.0483 65.9261 27.9688 66.1761 27.7983C66.4318 27.6278 66.6392 27.3381 66.7983 26.929L67.0114 26.375L62.3153 12.9091H66.1335L68.8438 22.5227H68.9801L71.7159 12.9091H75.5597L70.4716 27.4148C70.2273 28.1193 69.8949 28.733 69.4744 29.2557C69.0597 29.7841 68.5341 30.1903 67.8977 30.4744C67.2614 30.7642 66.4943 30.9091 65.5966 30.9091ZM81.8196 26.2131C80.8253 26.2131 79.9247 25.9574 79.1179 25.446C78.3168 24.929 77.6804 24.1705 77.2088 23.1705C76.7429 22.1648 76.5099 20.9318 76.5099 19.4716C76.5099 17.9716 76.7514 16.7244 77.2344 15.7301C77.7173 14.7301 78.3594 13.983 79.1605 13.4886C79.9673 12.9886 80.8509 12.7386 81.8111 12.7386C82.544 12.7386 83.1548 12.8636 83.6435 13.1136C84.1378 13.358 84.5355 13.6648 84.8366 14.0341C85.1435 14.3977 85.3764 14.7557 85.5355 15.108H85.6463V8.54545H89.2685V26H85.6889V23.9034H85.5355C85.3651 24.267 85.1236 24.6278 84.8111 24.9858C84.5043 25.3381 84.1037 25.6307 83.6094 25.8636C83.1207 26.0966 82.5241 26.2131 81.8196 26.2131ZM82.9702 23.3239C83.5554 23.3239 84.0497 23.1648 84.4531 22.8466C84.8622 22.5227 85.1747 22.071 85.3906 21.4915C85.6122 20.9119 85.723 20.233 85.723 19.4545C85.723 18.6761 85.6151 18 85.3991 17.4261C85.1832 16.8523 84.8707 16.4091 84.4616 16.0966C84.0526 15.7841 83.5554 15.6278 82.9702 15.6278C82.3736 15.6278 81.8707 15.7898 81.4616 16.1136C81.0526 16.4375 80.7429 16.8864 80.5327 17.4602C80.3224 18.0341 80.2173 18.6989 80.2173 19.4545C80.2173 20.2159 80.3224 20.8892 80.5327 21.4744C80.7486 22.054 81.0582 22.5085 81.4616 22.8381C81.8707 23.1619 82.3736 23.3239 82.9702 23.3239ZM92.2536 26V12.9091H95.7734V15.1932H95.9098C96.1484 14.3807 96.549 13.767 97.1115 13.3523C97.674 12.9318 98.3217 12.7216 99.0547 12.7216C99.2365 12.7216 99.4325 12.733 99.6428 12.7557C99.853 12.7784 100.038 12.8097 100.197 12.8494V16.071C100.026 16.0199 99.7905 15.9744 99.4893 15.9347C99.1882 15.8949 98.9126 15.875 98.6626 15.875C98.1286 15.875 97.6513 15.9915 97.2308 16.2244C96.8161 16.4517 96.4865 16.7699 96.2422 17.179C96.0036 17.5881 95.8842 18.0597 95.8842 18.5938V26H92.2536ZM107.379 26.2557C106.055 26.2557 104.911 25.9744 103.945 25.4119C102.984 24.8437 102.243 24.054 101.72 23.0426C101.197 22.0256 100.936 20.8466 100.936 19.5057C100.936 18.1534 101.197 16.9716 101.72 15.9602C102.243 14.9432 102.984 14.1534 103.945 13.5909C104.911 13.0227 106.055 12.7386 107.379 12.7386C108.703 12.7386 109.845 13.0227 110.805 13.5909C111.771 14.1534 112.516 14.9432 113.038 15.9602C113.561 16.9716 113.822 18.1534 113.822 19.5057C113.822 20.8466 113.561 22.0256 113.038 23.0426C112.516 24.054 111.771 24.8437 110.805 25.4119C109.845 25.9744 108.703 26.2557 107.379 26.2557ZM107.396 23.4432C107.999 23.4432 108.501 23.2727 108.905 22.9318C109.308 22.5852 109.612 22.1136 109.817 21.517C110.027 20.9205 110.132 20.2415 110.132 19.4801C110.132 18.7188 110.027 18.0398 109.817 17.4432C109.612 16.8466 109.308 16.375 108.905 16.0284C108.501 15.6818 107.999 15.5085 107.396 15.5085C106.788 15.5085 106.277 15.6818 105.862 16.0284C105.453 16.375 105.143 16.8466 104.933 17.4432C104.729 18.0398 104.626 18.7188 104.626 19.4801C104.626 20.2415 104.729 20.9205 104.933 21.517C105.143 22.1136 105.453 22.5852 105.862 22.9318C106.277 23.2727 106.788 23.4432 107.396 23.4432ZM116.251 26V8.54545H123.138C124.462 8.54545 125.589 8.7983 126.521 9.30398C127.453 9.80398 128.163 10.5 128.652 11.392C129.146 12.2784 129.393 13.3011 129.393 14.4602C129.393 15.6193 129.143 16.642 128.643 17.5284C128.143 18.4148 127.419 19.1051 126.47 19.5994C125.527 20.0937 124.385 20.3409 123.044 20.3409H118.655V17.3835H122.447C123.158 17.3835 123.743 17.2614 124.203 17.017C124.669 16.767 125.016 16.4233 125.243 15.9858C125.476 15.5426 125.592 15.0341 125.592 14.4602C125.592 13.8807 125.476 13.375 125.243 12.9432C125.016 12.5057 124.669 12.1676 124.203 11.929C123.737 11.6847 123.146 11.5625 122.43 11.5625H119.942V26H116.251ZM131.722 26V12.9091H135.353V26H131.722ZM133.546 11.2216C133.006 11.2216 132.543 11.0426 132.157 10.6847C131.776 10.321 131.586 9.88636 131.586 9.38068C131.586 8.88068 131.776 8.4517 132.157 8.09375C132.543 7.73011 133.006 7.54829 133.546 7.54829C134.086 7.54829 134.546 7.73011 134.927 8.09375C135.313 8.4517 135.506 8.88068 135.506 9.38068C135.506 9.88636 135.313 10.321 134.927 10.6847C134.546 11.0426 134.086 11.2216 133.546 11.2216ZM141.295 12.9091L143.699 17.4858L146.162 12.9091H149.886L146.094 19.4545L149.989 26H146.281L143.699 21.4744L141.159 26H137.409L141.295 19.4545L137.545 12.9091H141.295ZM155.673 8.54545V26H152.043V8.54545H155.673Z" fill="black"/>
</svg>
